<?xml version="1.0" encoding="UTF-8"?>
<svg id="Layer_1" xmlns="http://www.w3.org/2000/svg" version="1.1" viewBox="0 0 690.96 124.51">
  <!-- Generator: Adobe Illustrator 29.7.1, SVG Export Plug-In . SVG Version: 2.1.1 Build 8)  -->
  <defs>
    <style>
      .st0 {
        fill: #fff;
      }

      .st1 {
        display: none;
      }

      .st2 {
        fill: #2872fa;
      }
    </style>
  </defs>
  <rect class="st1" x="-286.51" y="-519.34" width="1219.4" height="1130.55"/>
  <g>
    <circle class="st2" cx="20.06" cy="28.3" r="20"/>
    <circle class="st2" cx="60.06" cy="20.3" r="20"/>
    <circle class="st2" cx="100.06" cy="28.3" r="20"/>
    <ellipse class="st2" cx="60.06" cy="84.3" rx="48" ry="32"/>
    <path class="st2" d="M48.06,112.3l-12,12,8-16,4,4Z"/>
  </g>
  <g>
    <path class="st0" d="M150.04,104.59V24.67h15.01v79.92h-15.01ZM162.89,67.77v-9.4h16.85c3.67,0,6.37-.97,8.1-2.92,1.73-1.94,2.59-4.5,2.59-7.67s-.86-5.94-2.59-7.88c-1.73-1.94-4.43-2.92-8.1-2.92h-16.85v-12.31h15.44c8.93,0,15.71,1.87,20.36,5.62,4.64,3.74,6.97,9.11,6.97,16.09v1.62c0,4.9-1.17,8.8-3.51,11.72-2.34,2.92-5.56,4.99-9.67,6.21-4.1,1.23-8.82,1.84-14.15,1.84h-15.44ZM162.89,104.59v-12.31h19.76c3.53,0,6.25-.99,8.15-2.97,1.91-1.98,2.86-4.7,2.86-8.15s-.94-6.14-2.81-8.05-4.61-2.86-8.21-2.86h-19.76v-9.4h18.68c5.25,0,9.95.63,14.09,1.89s7.38,3.37,9.72,6.32c2.34,2.95,3.51,6.91,3.51,11.88v1.51c0,4.68-1.03,8.66-3.08,11.93-2.05,3.28-5.11,5.8-9.18,7.56-4.07,1.77-9.09,2.65-15.07,2.65h-18.68.02Z"/>
    <path class="st0" d="M250.8,106.11c-5.18,0-9.76-.83-13.72-2.48-3.96-1.66-7.31-3.89-10.04-6.7-2.74-2.81-4.81-6.01-6.21-9.61s-2.11-7.38-2.11-11.34v-2.27c0-4.03.72-7.87,2.16-11.5s3.55-6.88,6.32-9.72c2.77-2.84,6.16-5.08,10.15-6.7,4-1.62,8.48-2.43,13.45-2.43s9.43.81,13.39,2.43c3.96,1.62,7.33,3.85,10.1,6.7,2.77,2.84,4.88,6.08,6.32,9.72s2.16,7.47,2.16,11.5v2.27c0,3.96-.7,7.74-2.11,11.34-1.4,3.6-3.47,6.8-6.21,9.61s-6.08,5.04-10.04,6.7c-3.96,1.66-8.5,2.48-13.61,2.48h0ZM250.8,93.25c3.6,0,6.66-.81,9.18-2.43s4.44-3.82,5.78-6.59c1.33-2.77,2-5.92,2-9.45s-.68-6.7-2.05-9.5c-1.37-2.81-3.31-5.02-5.83-6.64-2.52-1.62-5.54-2.43-9.07-2.43s-6.57.81-9.13,2.43c-2.56,1.62-4.52,3.83-5.89,6.64-1.37,2.81-2.05,5.98-2.05,9.5s.67,6.68,2,9.45,3.26,4.97,5.78,6.59,5.62,2.43,9.29,2.43h-.01Z"/>
    <path class="st0" d="M317.22,105.89c-8.06,0-14.38-1.71-18.95-5.13s-7-8.15-7.29-14.2h13.61c.22,2.02,1.33,3.85,3.35,5.51,2.02,1.66,5.18,2.48,9.5,2.48,3.53,0,6.37-.65,8.53-1.94,2.16-1.3,3.24-3.06,3.24-5.29,0-1.87-.81-3.38-2.43-4.54-1.62-1.15-4.41-1.94-8.37-2.38l-5.08-.54c-6.62-.65-11.7-2.5-15.23-5.56s-5.29-7.11-5.29-12.15c0-4.03,1.01-7.42,3.02-10.15,2.01-2.74,4.81-4.81,8.37-6.21s7.68-2.11,12.37-2.11c7.2,0,13.03,1.58,17.5,4.75,4.46,3.17,6.8,7.85,7.02,14.04h-13.5c-.22-2.09-1.24-3.85-3.08-5.29-1.84-1.44-4.52-2.16-8.05-2.16-3.17,0-5.62.61-7.34,1.84-1.73,1.22-2.59,2.81-2.59,4.75s.7,3.31,2.11,4.32c1.4,1.01,3.69,1.69,6.86,2.05l5.18.54c6.91.72,12.33,2.63,16.25,5.72,3.92,3.1,5.89,7.27,5.89,12.53,0,3.89-1.06,7.27-3.19,10.15-2.12,2.88-5.09,5.09-8.91,6.64s-8.32,2.32-13.5,2.32h0Z"/>
    <path class="st0" d="M376.51,105.89c-8.06,0-14.38-1.71-18.95-5.13s-7-8.15-7.29-14.2h13.61c.22,2.02,1.33,3.85,3.35,5.51,2.02,1.66,5.18,2.48,9.5,2.48,3.53,0,6.37-.65,8.53-1.94,2.16-1.3,3.24-3.06,3.24-5.29,0-1.87-.81-3.38-2.43-4.54-1.62-1.15-4.41-1.94-8.37-2.38l-5.08-.54c-6.62-.65-11.7-2.5-15.23-5.56s-5.29-7.11-5.29-12.15c0-4.03,1.01-7.42,3.02-10.15,2.01-2.74,4.81-4.81,8.37-6.21s7.68-2.11,12.37-2.11c7.2,0,13.03,1.58,17.5,4.75,4.46,3.17,6.8,7.85,7.02,14.04h-13.5c-.22-2.09-1.24-3.85-3.08-5.29-1.84-1.44-4.52-2.16-8.05-2.16-3.17,0-5.62.61-7.34,1.84-1.73,1.22-2.59,2.81-2.59,4.75s.7,3.31,2.11,4.32c1.4,1.01,3.69,1.69,6.86,2.05l5.18.54c6.91.72,12.33,2.63,16.25,5.72,3.92,3.1,5.89,7.27,5.89,12.53,0,3.89-1.06,7.27-3.19,10.15-2.12,2.88-5.09,5.09-8.91,6.64s-8.32,2.32-13.5,2.32h0Z"/>
    <path class="st0" d="M415.72,104.05V24.67h15.34v79.38h-15.34ZM428.89,79.86v-13.28h15.34c3.02,0,5.6-.61,7.72-1.84,2.12-1.22,3.76-2.92,4.91-5.08s1.73-4.61,1.73-7.34c0-2.88-.58-5.4-1.73-7.56-1.15-2.16-2.79-3.83-4.91-5.02-2.12-1.19-4.7-1.78-7.72-1.78h-15.34v-13.28h14.04c6.62,0,12.26,1.08,16.9,3.24,4.64,2.16,8.19,5.24,10.64,9.23,2.45,4,3.67,8.77,3.67,14.31v1.73c0,5.4-1.23,10.12-3.67,14.15-2.45,4.03-5.99,7.13-10.64,9.29-4.64,2.16-10.28,3.24-16.9,3.24h-14.04Z"/>
    <path class="st0" d="M501.36,105.57c-4.25,0-7.96-.76-11.12-2.27-3.17-1.51-5.63-3.67-7.4-6.48s-2.65-6.19-2.65-10.15c0-4.32,1.04-7.85,3.13-10.58,2.09-2.74,5.08-4.79,8.96-6.16,3.89-1.37,8.42-2.05,13.61-2.05h13.5v9.07h-13.72c-3.46,0-6.1.83-7.94,2.48-1.84,1.66-2.75,3.82-2.75,6.48s.92,4.82,2.75,6.48c1.84,1.66,4.48,2.48,7.94,2.48,2.09,0,4.01-.38,5.78-1.13,1.76-.76,3.22-2.05,4.37-3.89s1.8-4.34,1.94-7.51l3.67,4.21c-.36,4.1-1.35,7.56-2.97,10.37s-3.85,4.95-6.7,6.43c-2.84,1.47-6.32,2.21-10.42,2.21h.02,0ZM520.26,104.05v-17.39h-2.48v-19.33c0-3.31-.83-5.81-2.48-7.51-1.66-1.69-4.18-2.54-7.56-2.54-1.8,0-3.96.04-6.48.11-2.52.07-5.06.16-7.61.27-2.56.11-4.84.23-6.86.38v-12.74c1.66-.14,3.51-.29,5.56-.43s4.19-.23,6.43-.27c2.23-.04,4.32-.05,6.26-.05,6.05,0,11.07.79,15.07,2.38,4,1.58,7.02,4.09,9.07,7.51s3.08,7.87,3.08,13.34v36.29h-11.99v-.02h-.01Z"/>
    <path class="st0" d="M557.2,104.05l-15.98-58.64h14.58l15.23,58.64h-13.83ZM563.25,104.05l-.11-12.31h11.99v12.31h-11.88ZM567.67,104.05l11.12-56.7h17.28l12.85,56.7h-11.88l-13.07-56.38h6.26l-11.56,56.38h-11.02.02ZM600.83,104.05v-12.31h11.99l-.11,12.31h-11.88ZM605.58,104.05l13.5-58.64h13.61l-14.15,58.64h-12.96,0Z"/>
    <path class="st0" d="M665.2,105.89c-8.06,0-14.38-1.71-18.95-5.13s-7-8.15-7.29-14.2h13.61c.22,2.02,1.33,3.85,3.35,5.51,2.02,1.66,5.18,2.48,9.5,2.48,3.53,0,6.37-.65,8.53-1.94,2.16-1.3,3.24-3.06,3.24-5.29,0-1.87-.81-3.38-2.43-4.54-1.62-1.15-4.41-1.94-8.37-2.38l-5.08-.54c-6.62-.65-11.7-2.5-15.23-5.56-3.53-3.06-5.29-7.11-5.29-12.15,0-4.03,1.01-7.42,3.02-10.15,2.01-2.74,4.81-4.81,8.37-6.21s7.68-2.11,12.37-2.11c7.2,0,13.03,1.58,17.5,4.75,4.46,3.17,6.8,7.85,7.02,14.04h-13.5c-.22-2.09-1.24-3.85-3.08-5.29-1.84-1.44-4.52-2.16-8.05-2.16-3.17,0-5.62.61-7.34,1.84-1.73,1.22-2.59,2.81-2.59,4.75s.7,3.31,2.11,4.32c1.4,1.01,3.69,1.69,6.86,2.05l5.18.54c6.91.72,12.33,2.63,16.25,5.72,3.92,3.1,5.89,7.27,5.89,12.53,0,3.89-1.06,7.27-3.19,10.15-2.12,2.88-5.09,5.09-8.91,6.64-3.82,1.55-8.32,2.32-13.5,2.32h0Z"/>
  </g>
</svg>